<svg width="1221" height="536" viewBox="0 0 1221 536" fill="none" xmlns="http://www.w3.org/2000/svg">
<path d="M152.94 355.111L219.72 206.711H246.856L313.848 355.111H285.016L227.564 221.339H238.588L181.348 355.111H152.94ZM183.68 320.767L191.1 299.143H271.236L278.656 320.767H183.68ZM355.372 355.111V230.031H306.188V206.711H432.116V230.031H382.932V355.111H355.372Z" fill="#171717"/>
<path d="M565.278 125.426C568.223 119.528 576.637 119.524 579.588 125.419L696.295 358.53C698.958 363.85 695.09 370.112 689.141 370.112H456.03C450.084 370.112 446.216 363.857 448.872 358.538L565.278 125.426Z" stroke="#171717" stroke-width="30"/>
<path d="M732.099 355.111V206.711H759.659V331.791H837.251V355.111H732.099ZM879.946 355.111V296.387L886.094 313.347L821.646 206.711H851.114L902.842 292.571H886.306L938.458 206.711H965.594L901.146 313.347L907.506 296.387V355.111H879.946ZM1026.54 357.231C1014.95 357.231 1003.86 355.606 993.256 352.355C982.656 348.963 974.247 344.653 968.028 339.423L977.568 318.011C983.504 322.675 990.854 326.562 999.616 329.671C1008.38 332.781 1017.35 334.335 1026.54 334.335C1034.31 334.335 1040.6 333.487 1045.41 331.791C1050.21 330.095 1053.75 327.834 1056.01 325.007C1058.27 322.039 1059.4 318.718 1059.4 315.043C1059.4 310.521 1057.77 306.917 1054.52 304.231C1051.27 301.405 1047.03 299.214 1041.8 297.659C1036.72 295.963 1030.99 294.409 1024.63 292.995C1018.41 291.582 1012.12 289.957 1005.76 288.119C999.546 286.141 993.822 283.667 988.592 280.699C983.504 277.59 979.335 273.491 976.084 268.403C972.834 263.315 971.208 256.814 971.208 248.899C971.208 240.843 973.328 233.494 977.568 226.851C981.95 220.067 988.522 214.697 997.284 210.739C1006.19 206.641 1017.42 204.591 1030.99 204.591C1039.9 204.591 1048.73 205.722 1057.49 207.983C1066.25 210.245 1073.89 213.495 1080.39 217.735L1071.7 239.147C1065.05 235.19 1058.2 232.293 1051.13 230.455C1044.07 228.477 1037.28 227.487 1030.78 227.487C1023.15 227.487 1016.93 228.406 1012.12 230.243C1007.46 232.081 1004 234.483 1001.74 237.451C999.616 240.419 998.556 243.811 998.556 247.627C998.556 252.15 1000.11 255.825 1003.22 258.651C1006.47 261.337 1010.64 263.457 1015.73 265.011C1020.96 266.566 1026.75 268.121 1033.11 269.675C1039.47 271.089 1045.76 272.714 1051.98 274.551C1058.34 276.389 1064.06 278.791 1069.15 281.759C1074.38 284.727 1078.55 288.755 1081.66 293.843C1084.91 298.931 1086.54 305.362 1086.54 313.135C1086.54 321.05 1084.35 328.399 1079.96 335.183C1075.72 341.826 1069.15 347.197 1060.25 351.295C1051.34 355.253 1040.11 357.231 1026.54 357.231ZM1141.9 355.111V230.031H1092.71V206.711H1218.64V230.031H1169.46V355.111H1141.9Z" fill="#171717"/>
<path d="M273.702 535.34C234.494 535.34 198.051 528.805 164.372 515.736C131.196 502.164 102.293 483.314 77.662 459.186C53.0313 435.058 33.93 406.909 20.358 374.738C6.786 342.065 0 306.375 0 267.67C0 228.965 6.786 193.527 20.358 161.356C33.93 128.683 53.0313 100.282 77.662 76.154C102.795 52.026 131.95 33.4274 165.126 20.358C198.302 6.786 234.494 0 273.702 0C310.899 0 345.583 6.032 377.754 18.096C410.427 30.16 438.325 48.5074 461.448 73.138L437.32 98.02C414.7 75.9027 389.567 60.0687 361.92 50.518C334.776 40.4647 305.873 35.438 275.21 35.438C241.531 35.438 210.115 41.2187 180.96 52.78C152.308 64.3413 127.175 80.678 105.56 101.79C84.448 122.902 67.86 147.533 55.796 175.682C44.2347 203.831 38.454 234.494 38.454 267.67C38.454 300.846 44.2347 331.509 55.796 359.658C67.86 387.807 84.448 412.438 105.56 433.55C127.175 454.662 152.308 470.999 180.96 482.56C210.115 494.121 241.531 499.902 275.21 499.902C305.873 499.902 334.776 495.127 361.92 485.576C389.567 475.523 414.7 459.186 437.32 436.566L461.448 461.448C438.325 486.079 410.427 504.677 377.754 517.244C345.583 529.308 310.899 535.34 273.702 535.34Z" fill="#171717"/>
</svg>
