<svg width="577" height="536" viewBox="0 0 577 536" fill="none" xmlns="http://www.w3.org/2000/svg">
<path d="M429.278 145.426C432.223 139.528 440.637 139.524 443.588 145.419L560.295 378.53C562.958 383.849 559.09 390.111 553.141 390.111H320.03C314.084 390.111 310.216 383.856 312.872 378.537L429.278 145.426Z" stroke="#171717" stroke-width="30"/>
<path d="M273.702 535.34C234.494 535.34 198.051 528.805 164.372 515.736C131.196 502.164 102.293 483.314 77.662 459.186C53.0313 435.058 33.93 406.909 20.358 374.738C6.786 342.065 0 306.375 0 267.67C0 228.965 6.786 193.527 20.358 161.356C33.93 128.683 53.0313 100.282 77.662 76.154C102.795 52.026 131.95 33.4274 165.126 20.358C198.302 6.786 234.494 0 273.702 0C310.899 0 345.583 6.032 377.754 18.096C410.427 30.16 438.325 48.5074 461.448 73.138L437.32 98.02C414.7 75.9027 389.567 60.0687 361.92 50.518C334.776 40.4647 305.873 35.438 275.21 35.438C241.531 35.438 210.115 41.2187 180.96 52.78C152.308 64.3413 127.175 80.678 105.56 101.79C84.448 122.902 67.86 147.533 55.796 175.682C44.2347 203.831 38.454 234.494 38.454 267.67C38.454 300.846 44.2347 331.509 55.796 359.658C67.86 387.807 84.448 412.438 105.56 433.55C127.175 454.662 152.308 470.999 180.96 482.56C210.115 494.121 241.531 499.902 275.21 499.902C305.873 499.902 334.776 495.127 361.92 485.576C389.567 475.523 414.7 459.186 437.32 436.566L461.448 461.448C438.325 486.079 410.427 504.677 377.754 517.244C345.583 529.308 310.899 535.34 273.702 535.34Z" fill="black"/>
</svg>
